Coordinates
version=1
nRows=19
nColumns=24
inDegrees=yes

Units are S.I. units (second, meters, Newtons, ...)
Angles are in degrees.

endheader
time	pelvis_tilt	pelvis_list	pelvis_rotation	pelvis_tx	pelvis_ty	pelvis_tz	hip_flexion_r	hip_adduction_r	hip_rotation_r	knee_angle_r	ankle_angle_r	subtalar_angle_r	mtp_angle_r	hip_flexion_l	hip_adduction_l	hip_rotation_l	knee_angle_l	ankle_angle_l	subtalar_angle_l	mtp_angle_l	lumbar_extension	lumbar_bending	lumbar_rotation
      1.17383333	     -1.26620788	      6.77507817	      0.73157719	      0.11240410	      0.99345174	      0.27371956	     23.57827797	     -6.75380729	     -1.08535390	    -72.50092866	     -0.19118666	    -12.24648901	      1.59664023	     10.02967633	     11.13900586	      0.56251011	    -12.15488152	      4.43427476	     -7.18242415	      0.99661759	     -0.43674347	     -5.01705138	      2.02583171
      1.17800000	     -1.19972920	      6.71644425	      0.68639538	      0.11746664	      0.99430372	      0.27367538	     24.08604383	     -6.62150276	     -0.93398781	    -72.31345538	      0.35985599	    -12.56797204	      1.33350319	      9.36081520	     11.08980326	      0.74151189	    -11.63753388	      4.43527323	     -7.33707875	      0.95345785	     -0.52747531	     -4.95090448	      2.01002253
      1.18216667	     -1.13733252	      6.61252839	      0.63309785	      0.12251132	      0.99514640	      0.27366418	     24.57159158	     -6.42693043	     -0.78192949	    -72.03398630	      0.93673926	    -12.76236248	      0.76804863	      8.70957164	     10.98650390	      0.89577742	    -11.13953548	      4.38372896	     -7.50283725	      0.84918876	     -0.61949467	     -4.82401614	      1.97914847
      1.18633333	     -1.14656660	      6.50088036	      0.60081814	      0.12753428	      0.99583997	      0.27366128	     25.11872210	     -6.22816122	     -0.64951246	    -71.69973818	      1.57693738	    -12.91512869	      0.70547617	      8.19013632	     10.86331210	      0.94241282	    -10.75494322	      4.48630299	     -7.43209366	      0.83680308	     -0.61021038	     -4.69377500	      1.94833593
      1.19050000	     -1.07881307	      6.42030120	      0.55286781	      0.13257344	      0.99660098	      0.27363373	     25.56592757	     -6.07460894	     -0.52035939	    -71.30421649	      2.15480883	    -13.14198710	      0.47812326	      7.54427694	     10.78291922	      1.07572919	    -10.27792850	      4.50866240	     -7.50689608	      0.78381575	     -0.71276498	     -4.58001565	      1.92109105
      1.19466667	     -1.06399648	      6.28379378	      0.52116822	      0.13759039	      0.99729670	      0.27366298	     26.03329085	     -5.84557686	     -0.40432422	    -70.80953644	      2.76226537	    -13.27568139	      0.41016352	      6.99732270	     10.63223317	      1.15579725	     -9.88476049	      4.55919796	     -7.49707343	      0.76534789	     -0.74507524	     -4.43674701	      1.89150809
      1.19883333	     -1.03404022	      6.16265613	      0.48778858	      0.14262542	      0.99795977	      0.27365931	     26.46579220	     -5.64561237	     -0.29936179	    -70.25865969	      3.34894218	    -13.43517615	      0.33727240	      6.42046046	     10.50262876	      1.25662188	     -9.46307365	      4.60415402	     -7.52536561	      0.74432367	     -0.79337092	     -4.28805488	      1.86069113
      1.20300000	     -1.00749832	      6.03732825	      0.45524009	      0.14765211	      0.99857959	      0.27366480	     26.88010782	     -5.44553013	     -0.20948425	    -69.63881475	      3.90150439	    -13.58392028	      0.26237063	      5.85042045	     10.36836932	      1.37167091	     -9.04543823	      4.64240404	     -7.57496932	      0.72137051	     -0.84169294	     -4.13388827	      1.82990587
      1.20716667	     -0.91067842	      5.95093042	      0.41968225	      0.15268834	      0.99924869	      0.27363796	     27.19818232	     -5.29933087	     -0.11959994	    -68.96283071	      4.42166356	    -13.74669188	      0.06903594	      5.16494093	     10.28556731	      1.58163454	     -8.54597860	      4.63066024	     -7.77059905	      0.66121602	     -0.98067160	     -4.03639540	      1.78632446
      1.21133333	     -0.88996092	      5.82753357	      0.40120535	      0.15770873	      0.99978790	      0.27364048	     27.56939502	     -5.10891256	     -0.04805475	    -68.21127771	      4.95646255	    -13.87547458	     -0.09950962	      4.60521255	     10.15431196	      1.72267070	     -8.13400333	      4.66197287	     -7.86955795	      0.60785836	     -1.01655350	     -3.89586013	      1.74844737
      1.21550000	     -0.85430450	      5.69667913	      0.38397150	      0.16273190	      1.00030082	      0.27364406	     27.89802798	     -4.91571960	      0.00850949	    -67.39063051	      5.45009232	    -14.00352055	     -0.25285235	      4.03444787	     10.01305799	      1.85168445	     -7.73091575	      4.69597252	     -7.94690054	      0.55875512	     -1.07376438	     -3.74159737	      1.70823966
      1.21966667	     -0.82318585	      5.57742596	      0.36882283	      0.16773307	      1.00076062	      0.27365050	     28.21244997	     -4.73513903	      0.06758064	    -66.51172327	      5.90767693	    -14.14203654	     -0.45794965	      3.46664124	      9.88578438	      2.01465735	     -7.31953669	      4.69975319	     -8.06560001	      0.49261619	     -1.13970033	     -3.60541340	      1.65945165
      1.22383333	     -0.85072941	      5.48878743	      0.39051767	      0.17273090	      1.00107604	      0.27357751	     28.57470492	     -4.61856153	      0.08458861	    -65.60075468	      6.42869410	    -14.19275711	     -1.90646810	      2.95111646	      9.80168140	      2.28922746	     -6.88915989	      4.64184290	     -8.34880443	      0.03405303	     -1.11782950	     -3.49866196	      1.61812765
      1.22800000	     -0.83356171	      5.34238109	      0.36600580	      0.17773200	      1.00143365	      0.27364188	     28.85023617	     -4.40033100	      0.13775199	    -64.57985188	      6.80166931	    -14.33962660	     -1.95428585	      2.44776446	      9.63230449	      2.29782007	     -6.57494166	      4.74812638	     -8.29325032	      0.02109142	     -1.15379231	     -3.32389475	      1.57860631
      1.23216667	     -0.78944639	      5.23993975	      0.35689898	      0.18274725	      1.00174402	      0.27365635	     29.08368927	     -4.25374256	      0.16317002	    -63.53275943	      7.14971911	    -14.56346564	     -2.04959115	      1.88056544	      9.51727770	      2.41254917	     -6.19398830	      4.81912131	     -8.32364236	     -0.00588350	     -1.23844499	     -3.20273266	      1.51964474
      1.23633333	     -0.80028717	      5.12209462	      0.36870202	      0.18773424	      1.00195266	      0.27365794	     29.34622558	     -4.09576002	      0.17396135	    -62.41361123	      7.49839752	    -14.70533354	     -2.10638430	      1.40474302	      9.38507413	      2.51691994	     -5.87603944	      4.87259780	     -8.35445945	     -0.02263897	     -1.24223024	     -3.06003177	      1.48085220
      1.24050000	     -0.79908972	      5.01203854	      0.37884365	      0.19273299	      1.00211875	      0.27366884	     29.57422607	     -3.95068430	      0.17093546	    -61.24400201	      7.80617255	    -14.89041116	     -2.16822770	      0.90539937	      9.26097266	      2.63445201	     -5.53657948	      4.92352937	     -8.41603815	     -0.04078233	     -1.27735180	     -2.93191928	      1.42922164
      1.24466667	     -0.80175878	      4.92340713	      0.39082857	      0.19772386	      1.00222702	      0.27366760	     29.78722149	     -3.83225074	      0.17045938	    -60.02533637	      8.05811843	    -15.08918069	     -2.23705999	      0.41119915	      9.16119711	      2.76698030	     -5.19850687	      4.96947811	     -8.49429621	     -0.06106270	     -1.29740212	     -2.82172555	      1.37256358
      1.24883333	     -0.76569946	      4.85216201	      0.39224799	      0.20272203	      1.00232365	      0.27367701	     29.94193188	     -3.73496429	      0.16496665	    -58.76483882	      8.23016909	    -15.35612187	     -2.36534510	     -0.14840566	      9.08067745	      2.93688702	     -4.81237216	      5.00543866	     -8.64061000	     -0.09944702	     -1.37962244	     -2.74983234	      1.28674680
